<?xml version="1.0" encoding="UTF-8" standalone="no"?>
<!-- Created with Inkscape (http://www.inkscape.org/) -->

<svg
   width="236.67847mm"
   height="177.35902mm"
   viewBox="0 0 236.67847 177.35902"
   version="1.1"
   id="svg1688"
   inkscape:version="1.1 (c68e22c387, 2021-05-23)"
   sodipodi:docname="JDD-TechnologyOverview.svg"
   xmlns:inkscape="http://www.inkscape.org/namespaces/inkscape"
   xmlns:sodipodi="http://sodipodi.sourceforge.net/DTD/sodipodi-0.dtd"
   xmlns:xlink="http://www.w3.org/1999/xlink"
   xmlns="http://www.w3.org/2000/svg"
   xmlns:svg="http://www.w3.org/2000/svg"
   xmlns:rdf="http://www.w3.org/1999/02/22-rdf-syntax-ns#"
   xmlns:cc="http://creativecommons.org/ns#"
   xmlns:dc="http://purl.org/dc/elements/1.1/">
  <defs
     id="defs1682">
    <pattern
       y="0"
       x="0"
       height="6"
       width="6"
       patternUnits="userSpaceOnUse"
       id="EMFhbasepattern" />
    <linearGradient
       id="A"
       x1="0.51999998"
       y1="0"
       x2="0.47999999"
       y2="1">
      <stop
         offset="0%"
         stop-color="#387eb8"
         id="stop4" />
      <stop
         offset="100%"
         stop-color="#366994"
         id="stop6" />
    </linearGradient>
    <linearGradient
       id="B"
       x1="0.5"
       y1="0"
       x2="0.5"
       y2="1">
      <stop
         offset="0%"
         stop-color="#ffe052"
         id="stop9" />
      <stop
         offset="100%"
         stop-color="#ffc331"
         id="stop11" />
    </linearGradient>
    <linearGradient
       inkscape:collect="always"
       xlink:href="#A"
       id="linearGradient2868"
       gradientUnits="userSpaceOnUse"
       gradientTransform="matrix(0.06974454,0,0,0.07026511,11.262471,72.685703)"
       x1="30.964113"
       y1="0"
       x2="28.582258"
       y2="59.546371" />
    <linearGradient
       inkscape:collect="always"
       xlink:href="#B"
       id="linearGradient2870"
       gradientUnits="userSpaceOnUse"
       gradientTransform="matrix(0.0697445,0,0,0.07026514,11.262471,72.685703)"
       x1="50.524864"
       y1="20.156708"
       x2="50.524864"
       y2="79.703064" />
    <linearGradient
       inkscape:collect="always"
       xlink:href="#A"
       id="linearGradient2878"
       gradientUnits="userSpaceOnUse"
       gradientTransform="matrix(0.06974454,0,0,0.07026511,11.262471,72.685703)"
       x1="30.964113"
       y1="0"
       x2="28.582258"
       y2="59.546371" />
    <linearGradient
       inkscape:collect="always"
       xlink:href="#B"
       id="linearGradient2880"
       gradientUnits="userSpaceOnUse"
       gradientTransform="matrix(0.0697445,0,0,0.07026514,11.262471,72.685703)"
       x1="50.524864"
       y1="20.156708"
       x2="50.524864"
       y2="79.703064" />
    <linearGradient
       inkscape:collect="always"
       xlink:href="#A"
       id="linearGradient3459"
       gradientUnits="userSpaceOnUse"
       gradientTransform="matrix(0.06974454,0,0,0.07026511,11.262471,72.685703)"
       x1="30.964113"
       y1="0"
       x2="28.582258"
       y2="59.546371" />
    <linearGradient
       inkscape:collect="always"
       xlink:href="#B"
       id="linearGradient3461"
       gradientUnits="userSpaceOnUse"
       gradientTransform="matrix(0.0697445,0,0,0.07026514,11.262471,72.685703)"
       x1="50.524864"
       y1="20.156708"
       x2="50.524864"
       y2="79.703064" />
    <linearGradient
       inkscape:collect="always"
       xlink:href="#A"
       id="linearGradient3580"
       gradientUnits="userSpaceOnUse"
       gradientTransform="matrix(0.06974454,0,0,0.07026511,11.262471,72.685703)"
       x1="30.964113"
       y1="0"
       x2="28.582258"
       y2="59.546371" />
    <linearGradient
       inkscape:collect="always"
       xlink:href="#B"
       id="linearGradient3582"
       gradientUnits="userSpaceOnUse"
       gradientTransform="matrix(0.0697445,0,0,0.07026514,11.262471,72.685703)"
       x1="50.524864"
       y1="20.156708"
       x2="50.524864"
       y2="79.703064" />
  </defs>
  <sodipodi:namedview
     id="base"
     pagecolor="#ffffff"
     bordercolor="#666666"
     borderopacity="1.0"
     inkscape:pageopacity="1"
     inkscape:pageshadow="2"
     inkscape:zoom="1.2366982"
     inkscape:cx="465.35202"
     inkscape:cy="318.18596"
     inkscape:document-units="mm"
     inkscape:current-layer="layer1"
     showgrid="false"
     inkscape:window-width="1920"
     inkscape:window-height="1057"
     inkscape:window-x="1912"
     inkscape:window-y="-8"
     inkscape:window-maximized="1"
     objecttolerance="1"
     guidetolerance="1"
     fit-margin-top="5"
     fit-margin-right="5"
     fit-margin-bottom="5"
     fit-margin-left="5"
     inkscape:pagecheckerboard="0"
     width="236.67847mm" />
  <metadata
     id="metadata1685">
    <rdf:RDF>
      <cc:Work
         rdf:about="">
        <dc:format>image/svg+xml</dc:format>
        <dc:type
           rdf:resource="http://purl.org/dc/dcmitype/StillImage" />
      </cc:Work>
    </rdf:RDF>
  </metadata>
  <g
     inkscape:groupmode="layer"
     id="layer2"
     inkscape:label="background"
     sodipodi:insensitive="true">
    <rect
       style="fill:#ffffff;stroke-width:0.465;stroke-linecap:round;stroke-linejoin:round"
       id="rect988"
       width="236.67847"
       height="177.35902"
       x="-0.21394302"
       y="-1.8505859e-06" />
  </g>
  <g
     inkscape:label="layer1"
     inkscape:groupmode="layer"
     id="layer1"
     transform="translate(-25.939878,-100.54323)">
    <rect
       y="206.80035"
       x="30.939878"
       height="66.101898"
       width="138.57478"
       id="rect3451"
       style="opacity:1;fill:#ffe678;fill-opacity:1;stroke:none;stroke-width:1;stroke-linecap:round;stroke-linejoin:round;stroke-miterlimit:4;stroke-dasharray:none;stroke-dashoffset:0;stroke-opacity:1" />
    <rect
       y="138.24078"
       x="175.31248"
       height="134.66147"
       width="65.851112"
       id="rect3405"
       style="opacity:1;fill:#d7ee9e;fill-opacity:1;stroke:none;stroke-width:1;stroke-linecap:round;stroke-linejoin:round;stroke-miterlimit:4;stroke-dasharray:none;stroke-dashoffset:0;stroke-opacity:1" />
    <rect
       style="opacity:1;fill:#9edaee;fill-opacity:1;stroke:none;stroke-width:1;stroke-linecap:round;stroke-linejoin:round;stroke-miterlimit:4;stroke-dasharray:none;stroke-dashoffset:0;stroke-opacity:1"
       id="rect2860"
       width="138.57478"
       height="66.101898"
       x="30.939878"
       y="138.06166" />
    <rect
       style="opacity:1;fill:#fffebc;fill-opacity:1;stroke:#6b6b00;stroke-width:0.5;stroke-linecap:round;stroke-linejoin:round;stroke-miterlimit:4;stroke-dasharray:1.5, 1.5;stroke-dashoffset:0;stroke-opacity:1"
       id="rect815-0-6"
       width="47.218334"
       height="55.679127"
       x="185.99136"
       y="211.65742"
       ry="8.8210697" />
    <rect
       style="opacity:1;fill:#fffebc;fill-opacity:1;stroke:#6b6b00;stroke-width:0.5;stroke-linecap:round;stroke-linejoin:round;stroke-miterlimit:4;stroke-dasharray:none;stroke-dashoffset:0;stroke-opacity:1"
       id="rect815-0-68"
       width="47.218334"
       height="55.679127"
       x="115.71532"
       y="211.65742"
       ry="8.8210697" />
    <rect
       style="opacity:1;fill:#fffebc;fill-opacity:1;stroke:#6b6b00;stroke-width:0.5;stroke-linecap:round;stroke-linejoin:round;stroke-miterlimit:4;stroke-dasharray:none;stroke-dashoffset:0;stroke-opacity:1"
       id="rect815-0-8"
       width="47.218334"
       height="55.679127"
       x="57.39209"
       y="211.65742"
       ry="8.8210697" />
    <rect
       style="opacity:1;fill:#fffebc;fill-opacity:1;stroke:#6b6b00;stroke-width:0.5;stroke-linecap:round;stroke-linejoin:round;stroke-miterlimit:4;stroke-dasharray:none;stroke-dashoffset:0;stroke-opacity:1"
       id="rect815-0-0"
       width="47.218334"
       height="55.679127"
       x="185.99136"
       y="143.6064"
       ry="8.8210697" />
    <rect
       style="opacity:1;fill:#fffebc;fill-opacity:1;stroke:#6b6b00;stroke-width:0.5;stroke-linecap:round;stroke-linejoin:round;stroke-miterlimit:4;stroke-dasharray:1.5, 1.5;stroke-dashoffset:0;stroke-opacity:1"
       id="rect815-0-67"
       width="47.218334"
       height="55.679127"
       x="115.71532"
       y="143.6064"
       ry="8.8210697" />
    <rect
       style="opacity:1;fill:#fffebc;fill-opacity:1;stroke:#6b6b00;stroke-width:0.5;stroke-linecap:round;stroke-linejoin:round;stroke-miterlimit:4;stroke-dasharray:none;stroke-dashoffset:0;stroke-opacity:1"
       id="rect815-0"
       width="47.218334"
       height="55.679127"
       x="57.39209"
       y="143.6064"
       ry="8.8210697" />
    <text
       id="text1674"
       y="152.69498"
       x="66.806084"
       style="font-style:normal;font-variant:normal;font-weight:bold;font-stretch:normal;font-size:5.64444px;line-height:1.25;font-family:Calibri;-inkscape-font-specification:'Calibri, Bold';font-variant-ligatures:normal;font-variant-caps:normal;font-variant-numeric:normal;font-feature-settings:normal;text-align:start;letter-spacing:0px;word-spacing:0px;writing-mode:lr-tb;text-anchor:start;fill:#000000;fill-opacity:1;stroke:none;stroke-width:0.264583"
       xml:space="preserve"><tspan
         style="font-style:normal;font-variant:normal;font-weight:bold;font-stretch:normal;font-size:5.64444px;font-family:Calibri;-inkscape-font-specification:'Calibri, Bold';font-variant-ligatures:normal;font-variant-caps:normal;font-variant-numeric:normal;font-feature-settings:normal;text-align:start;writing-mode:lr-tb;text-anchor:start;stroke-width:0.264583"
         y="152.69498"
         x="66.806084"
         id="tspan1672"
         sodipodi:role="line">Grabber Job</tspan></text>
    <text
       id="text1674-0"
       y="152.22644"
       x="123.50185"
       style="font-style:normal;font-variant:normal;font-weight:bold;font-stretch:normal;font-size:5.64444px;line-height:1.25;font-family:Calibri;-inkscape-font-specification:'Calibri, Bold';font-variant-ligatures:normal;font-variant-caps:normal;font-variant-numeric:normal;font-feature-settings:normal;text-align:start;letter-spacing:0px;word-spacing:0px;writing-mode:lr-tb;text-anchor:start;fill:#000000;fill-opacity:1;stroke:none;stroke-width:0.264583"
       xml:space="preserve"><tspan
         style="font-style:normal;font-variant:normal;font-weight:bold;font-stretch:normal;font-size:5.64444px;font-family:Calibri;-inkscape-font-specification:'Calibri, Bold';font-variant-ligatures:normal;font-variant-caps:normal;font-variant-numeric:normal;font-feature-settings:normal;text-align:start;writing-mode:lr-tb;text-anchor:start;stroke-width:0.264583"
         y="152.22644"
         x="123.50185"
         id="tspan1672-2"
         sodipodi:role="line">Jobs Analyzer</tspan></text>
    <text
       id="text1674-4"
       y="152.69498"
       x="209.50269"
       style="font-style:normal;font-variant:normal;font-weight:bold;font-stretch:normal;font-size:5.64444px;line-height:1.25;font-family:Calibri;-inkscape-font-specification:'Calibri, Bold';font-variant-ligatures:normal;font-variant-caps:normal;font-variant-numeric:normal;font-feature-settings:normal;text-align:start;letter-spacing:0px;word-spacing:0px;writing-mode:lr-tb;text-anchor:start;fill:#000000;fill-opacity:1;stroke:none;stroke-width:0.264583"
       xml:space="preserve"><tspan
         style="font-style:normal;font-variant:normal;font-weight:bold;font-stretch:normal;font-size:5.64444px;font-family:Calibri;-inkscape-font-specification:'Calibri, Bold';font-variant-ligatures:normal;font-variant-caps:normal;font-variant-numeric:normal;font-feature-settings:normal;text-align:center;writing-mode:lr-tb;text-anchor:middle;stroke-width:0.264583"
         y="152.69498"
         x="209.50269"
         sodipodi:role="line"
         id="tspan2523">Inbox DB</tspan></text>
    <text
       xml:space="preserve"
       style="font-style:normal;font-variant:normal;font-weight:bold;font-stretch:normal;font-size:5.64444px;line-height:1.25;font-family:Calibri;-inkscape-font-specification:'Calibri, Bold';font-variant-ligatures:normal;font-variant-caps:normal;font-variant-numeric:normal;font-feature-settings:normal;text-align:start;letter-spacing:0px;word-spacing:0px;writing-mode:lr-tb;text-anchor:start;fill:#000000;fill-opacity:1;stroke:none;stroke-width:0.264583"
       x="209.66211"
       y="220.80663"
       id="text2535"><tspan
         sodipodi:role="line"
         x="209.66211"
         y="220.80663"
         style="font-style:normal;font-variant:normal;font-weight:bold;font-stretch:normal;font-size:5.64444px;font-family:Calibri;-inkscape-font-specification:'Calibri, Bold';font-variant-ligatures:normal;font-variant-caps:normal;font-variant-numeric:normal;font-feature-settings:normal;text-align:center;writing-mode:lr-tb;text-anchor:middle;stroke-width:0.264583"
         id="tspan2539">Analytical DB</tspan></text>
    <text
       xml:space="preserve"
       style="font-style:normal;font-variant:normal;font-weight:bold;font-stretch:normal;font-size:5.64444px;line-height:1.25;font-family:Calibri;-inkscape-font-specification:'Calibri, Bold';font-variant-ligatures:normal;font-variant-caps:normal;font-variant-numeric:normal;font-feature-settings:normal;text-align:start;letter-spacing:0px;word-spacing:0px;writing-mode:lr-tb;text-anchor:start;fill:#000000;fill-opacity:1;stroke:none;stroke-width:0.264583"
       x="80.892387"
       y="221.2283"
       id="text2535-9"><tspan
         sodipodi:role="line"
         x="80.892387"
         y="221.2283"
         style="font-style:normal;font-variant:normal;font-weight:bold;font-stretch:normal;font-size:5.64444px;font-family:Calibri;-inkscape-font-specification:'Calibri, Bold';font-variant-ligatures:normal;font-variant-caps:normal;font-variant-numeric:normal;font-feature-settings:normal;text-align:center;writing-mode:lr-tb;text-anchor:middle;stroke-width:0.264583"
         id="tspan2604">Micro Services</tspan></text>
    <text
       id="text2681"
       y="221.27516"
       x="130.82899"
       style="font-style:normal;font-variant:normal;font-weight:bold;font-stretch:normal;font-size:5.64444px;line-height:1.25;font-family:Calibri;-inkscape-font-specification:'Calibri, Bold';font-variant-ligatures:normal;font-variant-caps:normal;font-variant-numeric:normal;font-feature-settings:normal;text-align:start;letter-spacing:0px;word-spacing:0px;writing-mode:lr-tb;text-anchor:start;fill:#000000;fill-opacity:1;stroke:none;stroke-width:0.264583"
       xml:space="preserve"><tspan
         style="font-style:normal;font-variant:normal;font-weight:bold;font-stretch:normal;font-size:5.64444px;font-family:Calibri;-inkscape-font-specification:'Calibri, Bold';font-variant-ligatures:normal;font-variant-caps:normal;font-variant-numeric:normal;font-feature-settings:normal;text-align:start;writing-mode:lr-tb;text-anchor:start;stroke-width:0.264583"
         y="221.27516"
         x="130.82899"
         id="tspan2679"
         sodipodi:role="line">Web UI</tspan></text>
    <text
       id="text2298"
       y="111.44347"
       x="31.368986"
       style="font-style:normal;font-variant:normal;font-weight:700;font-size:8.45013px;line-height:141.811%;font-family:'Linux Biolinum G';text-align:start;letter-spacing:0px;word-spacing:0px;text-anchor:start;fill:#000000;fill-opacity:1;stroke:none;stroke-width:0.264583"
       xml:space="preserve"><tspan
         id="tspan2292"
         y="111.44347"
         x="31.368986"
         sodipodi:role="line"
         style="stroke-width:0.264583"><tspan
           id="tspan2290"
           style="font-style:normal;font-variant:normal;font-weight:700;font-size:8.45013px;font-family:'Linux Biolinum G';fill:#c9211e;stroke-width:0.264583"
           dy="0"
           dx="0">Jobs Data Dashboard Project</tspan></tspan><tspan
         id="tspan2296"
         y="123.42668"
         x="31.368986"
         sodipodi:role="line"
         style="stroke-width:0.264583"><tspan
           id="tspan2294"
           style="font-style:normal;font-variant:normal;font-weight:700;font-size:8.45013px;font-family:'Linux Biolinum G';fill:#8d281e;stroke-width:0.264583"
           dy="0"
           dx="0">Technology Overview</tspan></tspan></text>
    <g
       transform="matrix(0.12590001,0,0,0.12590001,86.657858,253.00304)"
       id="g6"
       style="fill:#0091e2;fill-opacity:1;stroke-width:2.10154">
      <path
         inkscape:connector-curvature="0"
         class="st0"
         d="m 121.68,33.34 c -0.34,-0.28 -3.42,-2.62 -10.03,-2.62 -1.71,0 -3.48,0.17 -5.19,0.46 -1.25,-8.72 -8.49,-12.94 -8.78,-13.16 l -1.77,-1.03 -1.14,1.65 c -1.42,2.22 -2.51,4.73 -3.13,7.29 -1.2,4.96 -0.46,9.63 2.05,13.62 -3.02,1.71 -7.92,2.11 -8.95,2.17 H 3.81 c -2.11,0 -3.82,1.71 -3.82,3.82 -0.11,7.07 1.08,14.13 3.53,20.8 2.79,7.29 6.95,12.71 12.31,16.01 6.04,3.7 15.9,5.81 27.01,5.81 5.01,0 10.03,-0.46 14.99,-1.37 6.9,-1.25 13.51,-3.65 19.6,-7.12 5.02,-2.91 9.52,-6.61 13.34,-10.94 6.44,-7.24 10.26,-15.33 13.05,-22.51 0.4,0 0.74,0 1.14,0 7.01,0 11.34,-2.79 13.73,-5.19 1.6,-1.48 2.79,-3.31 3.65,-5.36 l 0.51,-1.48 z m -50.09,6.04 h 10.83 c 0.51,0 0.97,-0.4 0.97,-0.97 v -9.69 c 0,-0.51 -0.4,-0.97 -0.97,-0.97 v 0 H 71.59 c -0.51,0 -0.97,0.4 -0.97,0.97 v 0 9.69 c 0.06,0.57 0.46,0.97 0.97,0.97 z M 56.49,11.63 h 10.83 c 0.51,0 0.97,-0.4 0.97,-0.97 V 0.97 C 68.29,0.46 67.83,0 67.32,0 H 56.49 c -0.51,0 -0.97,0.4 -0.97,0.97 v 0 9.69 c 0,0.51 0.45,0.97 0.97,0.97 z m 0,13.9 h 10.83 c 0.51,0 0.97,-0.46 0.97,-0.97 v -9.69 c 0,-0.51 -0.46,-0.97 -0.97,-0.97 H 56.49 c -0.51,0 -0.97,0.4 -0.97,0.97 v 0 9.69 c 0,0.52 0.45,0.97 0.97,0.97 z m -14.99,0 h 10.83 c 0.51,0 0.97,-0.46 0.97,-0.97 v -9.69 c 0,-0.51 -0.4,-0.97 -0.97,-0.97 v 0 H 41.5 c -0.51,0 -0.97,0.4 -0.97,0.97 v 0 9.69 c 0,0.52 0.4,0.97 0.97,0.97 z m -15.22,0 h 10.83 c 0.51,0 0.97,-0.46 0.97,-0.97 v -9.69 c 0,-0.51 -0.4,-0.97 -0.97,-0.97 v 0 H 26.28 c -0.51,0 -0.97,0.4 -0.97,0.97 v 9.69 c 0.06,0.52 0.46,0.97 0.97,0.97 z m 30.21,13.85 h 10.83 c 0.51,0 0.97,-0.4 0.97,-0.97 v -9.69 c 0,-0.51 -0.4,-0.97 -0.97,-0.97 v 0 H 56.49 c -0.51,0 -0.97,0.4 -0.97,0.97 v 0 9.69 c 0,0.57 0.45,0.97 0.97,0.97 z m -14.99,0 h 10.83 c 0.51,0 0.97,-0.4 0.97,-0.97 v 0 -9.69 c 0,-0.51 -0.4,-0.97 -0.97,-0.97 v 0 H 41.5 c -0.51,0 -0.97,0.4 -0.97,0.97 v 0 9.69 c 0,0.57 0.4,0.97 0.97,0.97 z m -15.22,0 h 10.83 c 0.51,0 0.97,-0.4 0.97,-0.97 v 0 -9.69 c 0,-0.51 -0.4,-0.97 -0.97,-0.97 v 0 H 26.28 c -0.51,0 -0.97,0.4 -0.97,0.97 v 9.69 c 0.06,0.57 0.46,0.97 0.97,0.97 z m -14.93,0 h 10.83 c 0.51,0 0.97,-0.4 0.97,-0.97 v 0 -9.69 c 0,-0.51 -0.4,-0.97 -0.97,-0.97 v 0 H 11.35 c -0.51,0 -0.97,0.4 -0.97,0.97 v 0 9.69 c 0.06,0.57 0.46,0.97 0.97,0.97 z"
         id="path4"
         style="fill:#0091e2;fill-opacity:1;stroke-width:2.10154" />
    </g>
    <g
       id="g1166"
       transform="matrix(0.24048507,0,0,0.24048507,-9.822974,229.25299)"
       style="stroke-width:4.15826">
      <path
         id="path4-7"
         d="m 219.48048,16.555572 c 0,0 -2.92036,1.698287 2.07831,2.272964 6.05575,0.690851 9.15078,0.591775 15.82425,-0.671282 0,0 1.75452,1.10013 4.20483,2.052982 -14.96017,6.411679 -33.85781,-0.371378 -22.10739,-3.654664"
         style="fill:#5382a1;stroke-width:0.85651"
         inkscape:connector-curvature="0" />
      <path
         id="path6-0"
         d="m 217.65242,8.1887516 c 0,0 -3.27546,2.4245654 1.72692,2.9419814 6.46894,0.667369 11.57761,0.721953 20.41755,-0.980249 0,0 1.22269,1.239575 3.14529,1.917448 -18.08774,5.289098 -38.23423,0.417105 -25.28976,-3.8791804"
         style="fill:#5382a1;stroke-width:0.85651"
         inkscape:connector-curvature="0" />
      <path
         id="path8-9"
         d="m 233.06348,-6.0041524 c 3.68618,4.243967 -0.96851,8.063003 -0.96851,8.063003 0,0 9.35984,-4.831829 5.06129,-10.882427 -4.01472,-5.6425566 -7.09347,-8.4461216 9.57364,-18.1124556 0,0 -26.16186,6.534029 -13.66642,20.9318796"
         style="fill:#f8981d;stroke-width:0.85651"
         inkscape:connector-curvature="0" />
      <path
         id="path10-1"
         d="m 252.84951,22.744177 c 0,0 2.16111,1.780677 -2.38008,3.158257 -8.63521,2.615919 -35.94066,3.405843 -43.526,0.104224 -2.72673,-1.186225 2.38667,-2.832401 3.99515,-3.177825 1.67748,-0.363757 2.6361,-0.29599 2.6361,-0.29599 -3.0324,-2.136198 -19.60023,4.194533 -8.41564,6.00755 30.50203,4.946558 55.60228,-2.227445 47.69047,-5.796216"
         style="fill:#5382a1;stroke-width:0.85651"
         inkscape:connector-curvature="0" />
      <path
         id="path12-6"
         d="m 220.88483,-0.48023941 c 0,0 -13.88929,3.29894101 -4.91854,4.49690801 3.78773,0.507119 11.33846,0.392388 18.37178,-0.196913 5.74802,-0.484873 11.51972,-1.515793 11.51972,-1.515793 0,0 -2.02682,0.867992 -3.49317,1.86925 -14.10434,3.709455 -41.35129,1.983774 -33.50724,-1.810544 6.63372,-3.20666301 12.02745,-2.84290801 12.02745,-2.84290801"
         style="fill:#5382a1;stroke-width:0.85651"
         inkscape:connector-curvature="0" />
      <path
         id="path14-7"
         d="m 245.80053,13.446747 c 14.33771,-7.4504234 7.70852,-14.6102154 3.08143,-13.64562041 -1.13411,0.23605 -1.63979,0.440586 -1.63979,0.440586 0,0 0.42102,-0.65954 1.22516,-0.945025 9.15386,-3.21819899 16.19377,9.49166501 -2.95496,14.52555641 0,0 0.22184,-0.198149 0.28816,-0.375497"
         style="fill:#5382a1;stroke-width:0.85651"
         inkscape:connector-curvature="0" />
      <path
         id="path16-5"
         d="m 237.15626,-42.544621 c 0,0 7.94045,7.943123 -7.53117,20.157403 -12.40666,9.797955 -2.8291,15.3844856 -0.004,21.76732559 C 222.379,-7.1539204 217.06436,-12.90585 220.62983,-18.259216 c 5.23328,-7.85826 19.73124,-11.668232 16.52746,-24.285405"
         style="fill:#f8981d;stroke-width:0.85651"
         inkscape:connector-curvature="0" />
      <path
         id="path18-6"
         d="m 222.29372,33.635665 c 13.76241,0.880967 34.89615,-0.488783 35.39668,-7.000775 0,0 -0.96212,2.468645 -11.37389,4.429141 -11.74651,2.210557 -26.23417,1.952467 -34.82694,0.53575 0,-2.07e-4 1.75905,1.455851 10.80415,2.035884"
         style="fill:#5382a1;stroke-width:0.85651"
         inkscape:connector-curvature="0" />
    </g>
    <g
       style="stroke-width:0.400831"
       transform="matrix(2.494816,0,0,2.494816,30.84059,2.4004546)"
       id="g2866">
      <path
         style="fill:url(#linearGradient2868);stroke:none;stroke-width:0.0280599"
         inkscape:connector-curvature="0"
         id="path2862"
         d="m 14.042483,72.685703 c -1.421718,0 -1.332952,0.619748 -1.332952,0.619748 l 0.0016,0.64208 h 1.356754 v 0.192792 h -1.895648 c 0,0 -0.909776,-0.103676 -0.909776,1.338273 0,1.44195 0.794059,1.390916 0.794059,1.390916 h 0.47393 v -0.669171 c 0,0 -0.02555,-0.79819 0.781388,-0.79819 h 1.345623 c 0,0 0.755977,0.01225 0.755977,-0.734485 v -1.234737 c 0,0 0.114807,-0.747226 -1.370965,-0.747226 z m -0.748136,0.431787 c 0.06475,-7e-5 0.126848,0.02576 0.172631,0.07182 a 0.24571523,0.24571523 0 0 1 0,0.347082 c -0.04578,0.04599 -0.107877,0.07182 -0.172631,0.07182 -0.06475,0 -0.126848,-0.02576 -0.172631,-0.07182 a 0.24571523,0.24571523 0 0 1 0,-0.347082 c 0.04578,-0.04599 0.107877,-0.07182 0.172631,-0.07182 z" />
      <path
         style="fill:url(#linearGradient2870);stroke:none;stroke-width:0.0280599"
         inkscape:connector-curvature="0"
         id="path2864"
         d="m 14.082876,78.28605 c 1.421718,0 1.332952,-0.619748 1.332952,-0.619748 l -0.0016,-0.64208 H 14.057464 V 76.83143 h 1.895578 c 0,0 0.909776,0.103746 0.909776,-1.338273 0,-1.442019 -0.794059,-1.390916 -0.794059,-1.390916 H 15.59483 v 0.669171 c 0,0 0.02555,0.79819 -0.781389,0.79819 h -1.345553 c 0,0 -0.756047,-0.01225 -0.756047,0.734485 v 1.234737 c 0,0 -0.114737,0.747226 1.371035,0.747226 z m 0.748066,-0.431787 c -0.06475,7e-5 -0.126848,-0.02576 -0.17263,-0.07182 a 0.24571523,0.24571523 0 0 1 0,-0.347082 c 0.04578,-0.04599 0.107876,-0.07182 0.17263,-0.07182 0.06475,0 0.126848,0.02576 0.172631,0.07182 a 0.24571523,0.24571523 0 0 1 0,0.347082 c -0.04578,0.04599 -0.107877,0.07182 -0.172631,0.07182 z" />
    </g>
    <g
       id="g2876"
       transform="matrix(2.494816,0,0,2.494816,89.010262,2.6942408)"
       style="stroke-width:0.400831">
      <path
         d="m 14.042483,72.685703 c -1.421718,0 -1.332952,0.619748 -1.332952,0.619748 l 0.0016,0.64208 h 1.356754 v 0.192792 h -1.895648 c 0,0 -0.909776,-0.103676 -0.909776,1.338273 0,1.44195 0.794059,1.390916 0.794059,1.390916 h 0.47393 v -0.669171 c 0,0 -0.02555,-0.79819 0.781388,-0.79819 h 1.345623 c 0,0 0.755977,0.01225 0.755977,-0.734485 v -1.234737 c 0,0 0.114807,-0.747226 -1.370965,-0.747226 z m -0.748136,0.431787 c 0.06475,-7e-5 0.126848,0.02576 0.172631,0.07182 a 0.24571523,0.24571523 0 0 1 0,0.347082 c -0.04578,0.04599 -0.107877,0.07182 -0.172631,0.07182 -0.06475,0 -0.126848,-0.02576 -0.172631,-0.07182 a 0.24571523,0.24571523 0 0 1 0,-0.347082 c 0.04578,-0.04599 0.107877,-0.07182 0.172631,-0.07182 z"
         id="path2872"
         inkscape:connector-curvature="0"
         style="fill:url(#linearGradient2878);stroke:none;stroke-width:0.0280599" />
      <path
         d="m 14.082876,78.28605 c 1.421718,0 1.332952,-0.619748 1.332952,-0.619748 l -0.0016,-0.64208 H 14.057464 V 76.83143 h 1.895578 c 0,0 0.909776,0.103746 0.909776,-1.338273 0,-1.442019 -0.794059,-1.390916 -0.794059,-1.390916 H 15.59483 v 0.669171 c 0,0 0.02555,0.79819 -0.781389,0.79819 h -1.345553 c 0,0 -0.756047,-0.01225 -0.756047,0.734485 v 1.234737 c 0,0 -0.114737,0.747226 1.371035,0.747226 z m 0.748066,-0.431787 c -0.06475,7e-5 -0.126848,-0.02576 -0.17263,-0.07182 a 0.24571523,0.24571523 0 0 1 0,-0.347082 c 0.04578,-0.04599 0.107876,-0.07182 0.17263,-0.07182 0.06475,0 0.126848,0.02576 0.172631,0.07182 a 0.24571523,0.24571523 0 0 1 0,0.347082 c -0.04578,0.04599 -0.107877,0.07182 -0.172631,0.07182 z"
         id="path2874"
         inkscape:connector-curvature="0"
         style="fill:url(#linearGradient2880);stroke:none;stroke-width:0.0280599" />
    </g>
    <g
       style="fill:#0091e2;fill-opacity:1;stroke-width:2.10154"
       id="g2884"
       transform="matrix(0.12590001,0,0,0.12590001,118.68056,253.59061)">
      <path
         style="fill:#0091e2;fill-opacity:1;stroke-width:2.10154"
         id="path2882"
         d="m 121.68,33.34 c -0.34,-0.28 -3.42,-2.62 -10.03,-2.62 -1.71,0 -3.48,0.17 -5.19,0.46 -1.25,-8.72 -8.49,-12.94 -8.78,-13.16 l -1.77,-1.03 -1.14,1.65 c -1.42,2.22 -2.51,4.73 -3.13,7.29 -1.2,4.96 -0.46,9.63 2.05,13.62 -3.02,1.71 -7.92,2.11 -8.95,2.17 H 3.81 c -2.11,0 -3.82,1.71 -3.82,3.82 -0.11,7.07 1.08,14.13 3.53,20.8 2.79,7.29 6.95,12.71 12.31,16.01 6.04,3.7 15.9,5.81 27.01,5.81 5.01,0 10.03,-0.46 14.99,-1.37 6.9,-1.25 13.51,-3.65 19.6,-7.12 5.02,-2.91 9.52,-6.61 13.34,-10.94 6.44,-7.24 10.26,-15.33 13.05,-22.51 0.4,0 0.74,0 1.14,0 7.01,0 11.34,-2.79 13.73,-5.19 1.6,-1.48 2.79,-3.31 3.65,-5.36 l 0.51,-1.48 z m -50.09,6.04 h 10.83 c 0.51,0 0.97,-0.4 0.97,-0.97 v -9.69 c 0,-0.51 -0.4,-0.97 -0.97,-0.97 v 0 H 71.59 c -0.51,0 -0.97,0.4 -0.97,0.97 v 0 9.69 c 0.06,0.57 0.46,0.97 0.97,0.97 z M 56.49,11.63 h 10.83 c 0.51,0 0.97,-0.4 0.97,-0.97 V 0.97 C 68.29,0.46 67.83,0 67.32,0 H 56.49 c -0.51,0 -0.97,0.4 -0.97,0.97 v 0 9.69 c 0,0.51 0.45,0.97 0.97,0.97 z m 0,13.9 h 10.83 c 0.51,0 0.97,-0.46 0.97,-0.97 v -9.69 c 0,-0.51 -0.46,-0.97 -0.97,-0.97 H 56.49 c -0.51,0 -0.97,0.4 -0.97,0.97 v 0 9.69 c 0,0.52 0.45,0.97 0.97,0.97 z m -14.99,0 h 10.83 c 0.51,0 0.97,-0.46 0.97,-0.97 v -9.69 c 0,-0.51 -0.4,-0.97 -0.97,-0.97 v 0 H 41.5 c -0.51,0 -0.97,0.4 -0.97,0.97 v 0 9.69 c 0,0.52 0.4,0.97 0.97,0.97 z m -15.22,0 h 10.83 c 0.51,0 0.97,-0.46 0.97,-0.97 v -9.69 c 0,-0.51 -0.4,-0.97 -0.97,-0.97 v 0 H 26.28 c -0.51,0 -0.97,0.4 -0.97,0.97 v 9.69 c 0.06,0.52 0.46,0.97 0.97,0.97 z m 30.21,13.85 h 10.83 c 0.51,0 0.97,-0.4 0.97,-0.97 v -9.69 c 0,-0.51 -0.4,-0.97 -0.97,-0.97 v 0 H 56.49 c -0.51,0 -0.97,0.4 -0.97,0.97 v 0 9.69 c 0,0.57 0.45,0.97 0.97,0.97 z m -14.99,0 h 10.83 c 0.51,0 0.97,-0.4 0.97,-0.97 v 0 -9.69 c 0,-0.51 -0.4,-0.97 -0.97,-0.97 v 0 H 41.5 c -0.51,0 -0.97,0.4 -0.97,0.97 v 0 9.69 c 0,0.57 0.4,0.97 0.97,0.97 z m -15.22,0 h 10.83 c 0.51,0 0.97,-0.4 0.97,-0.97 v 0 -9.69 c 0,-0.51 -0.4,-0.97 -0.97,-0.97 v 0 H 26.28 c -0.51,0 -0.97,0.4 -0.97,0.97 v 9.69 c 0.06,0.57 0.46,0.97 0.97,0.97 z m -14.93,0 h 10.83 c 0.51,0 0.97,-0.4 0.97,-0.97 v 0 -9.69 c 0,-0.51 -0.4,-0.97 -0.97,-0.97 v 0 H 11.35 c -0.51,0 -0.97,0.4 -0.97,0.97 v 0 9.69 c 0.06,0.57 0.46,0.97 0.97,0.97 z"
         class="st0"
         inkscape:connector-curvature="0" />
    </g>
    <g
       id="A-9"
       transform="matrix(0.26458333,0,0,0.26458333,187.67636,173.30883)"
       style="stroke:none">
      <path
         d="m 17.716,0.218 2.135,4.01 a 11.98,11.98 0 0 0 1.612,2.005 c 1.787,1.787 3.485,3.66 5.01,5.665 3.617,4.75 6.057,9.999 7.799,15.729 1.045,3.485 1.613,7.059 1.655,10.674 0.175,10.807 -3.53,20.086 -10.999,27.798 a 31.74,31.74 0 0 1 -3.925,3.355 c -0.74,0 -1.09,-0.567 -1.395,-1.09 -0.568,-0.957 -0.915,-2.05 -1.09,-3.137 -0.262,-1.307 -0.435,-2.615 -0.35,-3.965 v -0.61 C 18.108,60.497 17.456,0.502 17.715,0.219 Z"
         id="path4-0"
         inkscape:connector-curvature="0"
         style="fill:#599636;stroke:none" />
      <path
         d="m 17.716,0.086 c -0.087,-0.175 -0.175,-0.042 -0.262,0.042 0.042,0.875 -0.262,1.655 -0.74,2.4 -0.5,0.74 -1.22,1.307 -1.917,1.917 -3.875,3.355 -6.925,7.408 -9.367,11.94 -3.25,6.099 -4.925,12.636 -5.4,19.518 -0.217,2.482 0.785,11.242 1.567,13.769 2.135,6.709 5.97,12.332 10.937,17.211 1.22,1.175 2.5,2.265 3.875,3.312 0.392,0 0.435,-0.35 0.5,-0.61 a 11.96,11.96 0 0 0 0.392,-1.7 L 18.176,61.35 17.716,0.085 Z"
         id="path6"
         inkscape:connector-curvature="0"
         style="fill:#6cac48;stroke:none" />
      <path
         d="m 19.851,72.108 c 0.087,-1 0.567,-1.83 1.09,-2.657 -0.5,-0.217 -0.915,-0.65 -1.22,-1.132 -0.262,-0.435 -0.48,-0.957 -0.65,-1.437 -0.61,-1.83 -0.74,-3.75 -0.915,-5.62 V 60.13 c -0.217,0.175 -0.262,1.655 -0.262,1.875 -0.127,1.976 -0.389,3.942 -0.785,5.882 -0.13,0.785 -0.217,1.567 -0.7,2.265 0,0.087 0,0.175 0.042,0.305 0.785,2.31 1,4.662 1.132,7.059 v 0.875 c 0,1.045 -0.042,0.825 0.825,1.175 0.35,0.13 0.74,0.175 1.09,0.435 0.262,0 0.305,-0.217 0.305,-0.392 l -0.13,-1.437 v -4.01 c -0.042,-0.7 0.087,-1.395 0.175,-2.05 z"
         id="path8"
         inkscape:connector-curvature="0"
         style="fill:#c2bfbf;stroke:none" />
    </g>
    <g
       id="A-8"
       style="stroke:none;stroke-width:0.927316"
       transform="matrix(0.2853215,0,0,0.2853215,34.315214,160.35618)">
      <path
         d="M 3.511,14.898 0,16.56 V 63.44 L 3.511,65.102 17.72,41.215 Z"
         id="path4-0-7"
         inkscape:connector-curvature="0"
         style="fill:#9d5025;stroke:none;stroke-width:0.927316" />
      <path
         d="M 11.694,63.285 3.511,65.102 V 14.898 l 8.183,1.769 z"
         id="path6-50"
         inkscape:connector-curvature="0"
         style="fill:#f58536;stroke:none;stroke-width:0.927316" />
      <path
         d="M 7.382,13.061 11.694,11.03 32.177,42.109 11.694,68.97 7.382,66.939 Z"
         id="path8-62"
         inkscape:connector-curvature="0"
         style="fill:#9d5025;stroke:none;stroke-width:0.927316" />
      <path
         d="M 21.899,66.239 11.694,68.97 V 11.03 l 10.205,2.74 v 52.468 z"
         id="path10-3"
         inkscape:connector-curvature="0"
         style="fill:#f58536;stroke:none;stroke-width:0.927316" />
      <path
         d="m 16.499,8.746 5.4,-2.556 30.216,39.32 -30.216,28.299 -5.4,-2.556 z"
         id="path12-0"
         inkscape:connector-curvature="0"
         style="fill:#9d5025;stroke:none;stroke-width:0.927316" />
      <path
         d="M 34.989,69.281 21.899,73.81 V 6.19 l 13.09,4.538 V 69.28 Z"
         id="path14-6"
         inkscape:connector-curvature="0"
         style="fill:#f58536;stroke:none;stroke-width:0.927316" />
      <path
         d="M 28.008,3.304 34.99,0 67.68,42.264 34.99,80 28.008,76.696 Z"
         id="path16-2"
         inkscape:connector-curvature="0"
         style="fill:#9d5025;stroke:none;stroke-width:0.927316" />
      <path
         d="M 70,63.431 34.99,80 V 0 L 70,16.57 Z"
         id="path18-67"
         inkscape:connector-curvature="0"
         style="fill:#f58536;stroke:none;stroke-width:0.927316" />
    </g>
    <g
       id="g3035"
       transform="matrix(0.55585074,0,0,0.55585074,76.467067,145.40207)"
       style="stroke-width:1.79904">
      <g
         transform="matrix(0.26458333,0,0,0.26458333,-30.287793,192.91003)"
         id="g8"
         style="fill:#9d5025;stroke:none;stroke-width:1.79904">
        <path
           d="M 0,41.579 C 0,20.293 17.84,3.157 40,3.157 62.16,3.157 80,20.293 80,41.579 80,62.865 62.16,80 40,80 17.84,80 0,62.864 0,41.579 Z"
           id="path4-76"
           inkscape:connector-curvature="0"
           style="stroke-width:1.79904" />
        <path
           d="m 0,38.422 h 80 v 3.157 H 0 Z"
           id="path6-9"
           inkscape:connector-curvature="0"
           style="stroke-width:1.79904" />
      </g>
      <path
         d="m -30.287793,203.07585 c 0,-5.63192 4.720167,-10.16582 10.583333,-10.16582 5.863167,0 10.5833334,4.5339 10.5833334,10.16582 0,5.63192 -4.7201664,10.16582 -10.5833334,10.16582 -5.863166,0 -10.583333,-4.53416 -10.583333,-10.16582 z"
         id="path10-8"
         inkscape:connector-curvature="0"
         style="fill:#f58536;stroke:none;stroke-width:0.475997" />
      <path
         d="m -12.818149,208.07013 -0.820738,-2.06799 -1.836208,0.67495 -2.625725,-6.60452 -0.73025,-1.82748 -0.340784,-0.86201 -0.538956,-1.34964 h -2.465916 -1.012032 v 2.21165 h 1.892036 l 0.657225,1.6502 -5.474229,9.3607 h 2.643187 l 3.90234,-6.67465 2.764895,6.95193 0.65749,-0.2405 1.495425,-0.54796 v 0 l 1.832769,-0.67468 z"
         id="path12-9"
         inkscape:connector-curvature="0"
         style="fill:#ffffff;fill-opacity:1;stroke:none;stroke-width:0.475997" />
    </g>
    <g
       id="g3179"
       transform="translate(248.25336,40.028367)">
      <path
         style="fill:#19486f;stroke:none;stroke-width:0.264583"
         inkscape:connector-curvature="0"
         id="path4808"
         d="m -54.639896,204.1461 h 13.01459 a 3.4104791,3.4104791 0 0 1 2.414587,1.0025 c 0.640027,0.64188 0.999861,1.51236 0.999861,2.42015 v 5.74569 c -0.673894,-0.34899 -2.149211,-0.72046 -4.332023,-0.72046 -0.836083,-0.003 -1.671108,0.0593 -2.497402,0.18759 -1.471348,0.24394 -2.246577,0.66437 -2.246577,0.92313 v 9.75783 c 0,0.1614 0.220927,0.37518 0.640291,0.58552 h -7.993327 a 3.4104791,3.4104791 0 0 1 -2.414587,-1.0025 3.4263541,3.4263541 0 0 1 -1.000125,-2.42015 v -13.05269 a 3.4263541,3.4263541 0 0 1 0.998802,-2.42279 3.4104791,3.4104791 0 0 1 2.41591,-1.00382 z" />
      <path
         style="fill:#2e73b8;stroke:none;stroke-width:0.264583"
         inkscape:connector-curvature="0"
         id="path4810"
         d="m -54.639896,203.3243 h 13.01459 a 3.4104791,3.4104791 0 0 1 2.414587,1.00251 c 0.640027,0.64188 0.999861,1.51235 0.999861,2.42014 v 5.74199 c -0.673894,-0.34899 -2.149211,-0.72046 -4.332023,-0.72046 -0.836083,-0.003 -1.671108,0.0593 -2.497402,0.18759 -1.471348,0.24394 -2.246577,0.66437 -2.246577,0.92313 v 9.75783 c 0,0.1614 0.220927,0.37518 0.640291,0.58552 h -7.993327 a 3.4104791,3.4104791 0 0 1 -2.414587,-1.0025 3.4263541,3.4263541 0 0 1 -1.000125,-2.42015 v -13.05295 c 0,-1.89018 1.528762,-3.42265 3.414712,-3.42265 z" />
      <path
         style="fill:#19486f;stroke:none;stroke-width:0.264583"
         inkscape:connector-curvature="0"
         id="path4812"
         d="m -42.198394,214.38812 a 13.279437,13.279437 0 0 0 -2.096823,0.15769 6.1594999,6.1594999 0 0 1 -1.871927,-0.1651 v 0.93821 c 0,0.21775 0.655109,0.57044 1.871927,0.76941 a 12.676187,12.676187 0 0 0 2.096823,0.15769 c 2.583392,0 3.987536,-0.61172 3.987536,-0.9271 v -0.93821 z m -4.062147,2.75457 v 6.41774 c 0,0.32649 1.123156,0.9271 3.789097,0.9271 1.109134,0.027 2.216415,-0.0992 3.291152,-0.37518 0.531813,-0.17278 0.909903,-0.37518 0.950913,-0.51409 v -6.38042 c -0.778669,0.48418 -2.384954,0.75062 -3.979863,0.75062 h -0.104775 -0.490537 -0.06747 l -0.393171,-0.0675 h -0.202141 l -0.31459,-0.0262 -0.168539,-0.0262 -0.336815,-0.045 c -0.694531,-0.0884 -1.364985,-0.31273 -1.973262,-0.6604 z" />
      <path
         style="fill:#2e73b8;stroke:none;stroke-width:0.264583"
         inkscape:connector-curvature="0"
         id="path4814"
         d="m -42.198394,213.45387 a 13.279437,13.279437 0 0 0 -2.096823,0.15769 c -1.235604,0.20638 -1.871927,0.55907 -1.871927,0.77312 0,0.21404 0.655109,0.57044 1.871927,0.76941 a 12.678833,12.678833 0 0 0 2.096823,0.15769 c 2.583392,0 3.987536,-0.61172 3.987536,-0.9271 0,-0.31539 -1.404144,-0.93081 -3.987536,-0.93081 z m -4.062147,2.75061 v 6.41747 c 0,0.3265 1.123156,0.9271 3.789097,0.9271 1.109134,0.027 2.216415,-0.0992 3.291152,-0.37544 0.531813,-0.17251 0.909903,-0.37518 0.950913,-0.51409 v -6.3799 c -0.778669,0.48419 -2.384954,0.75063 -3.979863,0.75063 h -0.104775 -0.490537 -0.06747 l -0.393171,-0.0675 h -0.202141 l -0.31459,-0.0564 h -0.168539 l -0.336815,-0.045 c -0.694267,-0.0873 -1.364721,-0.31035 -1.973262,-0.65669 z" />
      <path
         style="fill:#19486f;stroke:none;stroke-width:0.264583"
         inkscape:connector-curvature="0"
         id="path4816"
         d="m -54.639896,223.21515 h 7.986184 v 0.82179 h -7.986184 a 3.4104791,3.4104791 0 0 1 -2.414587,-1.0025 3.4263541,3.4263541 0 0 1 -1.000125,-2.42015 v -0.82576 a 3.4263541,3.4263541 0 0 0 0.998802,2.42279 3.4104791,3.4104791 0 0 0 2.41591,1.00383 z" />
      <path
         inkscape:connector-curvature="0"
         id="path4818"
         d="m -55.152923,205.6775 h 1.160727 l 0.554038,2.74347 v 0 l 0.557742,-2.74347 h 1.156758 v 3.88435 h -0.703792 v -3.09986 0 l -0.688975,3.09986 h -0.632618 l -0.673894,-3.09986 v 0 3.09986 h -0.729986 z m 3.856302,4.28202 a 1.1959167,1.1959167 0 0 0 0.194734,0 c 0.277018,0 0.374385,-0.15399 0.400579,-0.41275 l -0.801158,-2.91253 h 0.74877 l 0.449263,2.01533 v 0 l 0.374385,-2.02274 h 0.748771 l -0.703792,2.73209 c -0.262202,1.01335 -0.430741,1.15226 -1.123156,1.15226 h -0.303212 z m 3.332427,-1.60972 v 0.11244 c 0,0.37518 0.104775,0.59664 0.516732,0.59664 a 0.44449999,0.44449999 0 0 0 0.342371,-0.13388 0.44714583,0.44714583 0 0 0 0.125412,-0.34634 c 0,-0.35269 -0.179652,-0.48419 -0.696383,-0.66437 -0.696384,-0.24024 -1.014677,-0.52917 -1.014677,-1.17475 0,-0.75062 0.460375,-1.1258 1.198033,-1.1258 0.737658,0 1.198033,0.3003 1.198033,1.04325 v 0.11642 h -0.748771 c 0,-0.37518 -0.12356,-0.57785 -0.423068,-0.57785 a 0.39952083,0.39952083 0 0 0 -0.332846,0.11589 0.40216666,0.40216666 0 0 0 -0.112713,0.33443 c 0,0.24024 0.07117,0.37518 0.40058,0.52917 l 0.602985,0.26273 c 0.587904,0.25532 0.748771,0.55536 0.748771,1.02817 0,0.82179 -0.497946,1.18983 -1.344084,1.18983 -0.846137,0 -1.231635,-0.41275 -1.231635,-1.1258 v -0.18018 z m 4.287044,1.69227 -0.460639,-0.48048 a 1.016,1.016 0 0 1 -0.239448,0.0601 2.1034375,2.1034375 0 0 1 -0.277019,0 c -1.172104,0 -1.31789,-0.83688 -1.31789,-2.01904 0,-1.18216 0.14605,-2.01903 1.31789,-2.01903 1.171839,0 1.317889,0.83687 1.317889,2.01903 a 2.8469166,2.8469166 0 0 1 -0.299508,1.57613 l 0.419365,0.42412 z m -0.977106,-0.97949 c 0.460375,0 0.535252,-0.39767 0.535252,-1.44118 0,-1.04352 -0.07488,-1.44119 -0.535252,-1.44119 -0.460375,0 -0.539221,0.40164 -0.539221,1.44119 0,1.03955 0.07858,1.44118 0.539221,1.44118 z m 1.662112,0.49927 v -3.88435 h 0.782638 v 3.24247 h 1.385358 v 0.64162 z m -1.39647,8.09519 h 1.224227 l 0.868627,3.65152 v 0 l 0.883708,-3.65152 h 1.198033 v 4.94268 h -0.74877 v -4.09839 0 l -0.999596,4.09839 h -0.662782 l -0.988483,-4.09839 v 0 4.09839 h -0.774964 z"
         style="fill:#ffffff;fill-opacity:1;stroke:none;stroke-width:0.264583" />
    </g>
    <text
       xml:space="preserve"
       style="font-style:normal;font-variant:normal;font-weight:bold;font-stretch:normal;font-size:22.5778px;line-height:1.25;font-family:Calibri;-inkscape-font-specification:'Calibri Bold';letter-spacing:0px;word-spacing:0px;fill:#000000;fill-opacity:1;stroke:none;stroke-width:0.264583"
       x="210.25333"
       y="261.53558"
       id="text3246"><tspan
         sodipodi:role="line"
         id="tspan3244"
         x="210.25333"
         y="261.53558"
         style="stroke-width:0.264583">?</tspan></text>
    <g
       id="g3337"
       transform="matrix(0.7923266,0,0,0.7923266,41.135149,35.595123)"
       style="stroke-width:1.26211">
      <path
         id="path3537"
         d="m 9.4038482,165.34304 c 0.222973,-0.0912 0.464644,-0.10799 0.7030428,-0.0986 0.330017,-0.0159 0.654426,0.0743 0.945648,0.22626 0.07713,0.0355 0.153791,0.0715 0.229519,0.11032 0.37162,0.2085 0.63199,0.56939 0.830188,0.93824 0.175757,0.41746 0.13556,0.88166 0.174824,1.3239 0.03224,0.36183 0.01871,0.72553 0.03644,1.08782 0.05937,0.1309 0.162207,0.23608 0.244944,0.35248 0.345443,0.4385 0.651158,0.90644 0.976032,1.36037 0.26037,0.34967 0.433328,0.75357 0.644612,1.13317 0.103776,0.22906 0.212222,0.45813 0.285614,0.69981 0.124806,0.58436 0.05843,1.19254 -0.07292,1.77035 -0.117331,-0.0383 -0.241672,-0.0393 -0.36274,-0.0468 -0.06264,0.17811 -0.106111,0.38988 -0.280935,0.49366 -0.223911,0.16221 -0.529152,0.11921 -0.761943,0.001 -0.12481,-0.0636 -0.267381,-0.16362 -0.252423,-0.32256 0.04581,-0.55443 -0.02008,-1.11307 -0.0318,-1.6689 -0.06638,-0.46795 -0.143508,-0.94993 -0.378634,-1.36738 -0.33329,-0.6311 -0.595531,-1.29679 -0.930691,-1.92602 -0.08461,-0.13931 -0.07526,-0.30947 -0.06684,-0.46608 0.03458,-0.0977 0.07245,-0.194 0.109848,-0.2903 -0.08274,-0.0337 -0.165475,-0.0673 -0.248213,-0.10051 0.133222,-0.34921 0.150518,-0.74796 0.01871,-1.09998 -0.09209,-0.2342 -0.300098,-0.45626 -0.568416,-0.45486 -0.209418,-0.0149 -0.398266,0.11594 -0.508118,0.2861 -0.1556568,0.22907 -0.1860448,0.5161 -0.1762268,0.78677 -0.123407,-0.0154 -0.248217,-0.0187 -0.37162,-0.007 0.0103,-0.21084 0.01358,-0.43336 -0.08648,-0.62549 -0.08508,-0.17063 -0.258031,-0.31929 -0.459501,-0.30106 -0.231858,10e-4 -0.408084,0.20289 -0.47119,0.41138 -0.103771,0.3436 -0.05422,0.75685 0.215963,1.01303 -0.07573,0.0468 -0.150987,0.0944 -0.226714,0.14165 -0.0044,0.11079 -0.02057,0.22252 -0.0035,0.33284 0.0276,0.0902 0.0991,0.15707 0.166408,0.22018 -0.03458,0.23141 -0.01915,0.47824 -0.126676,0.69281 -0.145843,0.35809 -0.351988,0.68673 -0.502975,1.04248 -0.190719,0.43896 -0.391256,0.87372 -0.570287,1.31782 -0.169216,0.38988 -0.300102,0.81248 -0.282806,1.24163 0.05516,0.37024 0.311788,0.66055 0.52167,0.95506 0.245413,0.2515 0.521673,0.47216 0.781106,0.70917 0.109852,0.0996 0.26738,0.21036 0.234662,0.38146 -0.01495,0.17203 -0.212222,0.20289 -0.347783,0.2272 -0.392658,-0.60726 -0.821307,-1.19021 -1.234066,-1.78344 -0.200068,-0.29638 -0.726412,-0.29591 -0.871322,0.0528 -0.118265,-0.16128 -0.09162,-0.36557 -0.107982,-0.5535 -0.01123,-0.43569 0.140235,-0.84988 0.327682,-1.23601 0.554396,-0.91767 1.163013,-1.8012 1.748257,-2.69923 -0.05843,-0.0907 -0.0098,-0.2113 -0.079,-0.29592 -0.0047,-0.10565 -0.0044,-0.21176 -0.008,-0.31741 -0.104709,-0.13791 0.01309,-0.33052 -0.07806,-0.47497 -0.01358,-0.0645 -0.0089,-0.1365 -0.05469,-0.18933 -0.0065,-0.37024 -0.0061,-0.74141 0,-1.11166 0.06825,-0.0827 0.02291,-0.19961 0.07713,-0.28843 0.01168,-0.0636 0.01822,-0.12856 0.04675,-0.187 0.01123,-0.0626 0.02105,-0.12528 0.04206,-0.18559 0.0065,-0.11172 0.114992,-0.16128 0.160336,-0.25337 0.164542,-0.27675 0.390319,-0.51376 0.64134,-0.71431 0.11359,-0.0893 0.222973,-0.19167 0.359936,-0.24402 z"
         inkscape:connector-curvature="0"
         style="fill:#000000;stroke-width:0.445243" />
      <path
         id="path3539"
         d="m 10.139609,167.28495 c 0.109853,-0.17016 0.298701,-0.30106 0.508119,-0.2861 0.268317,-0.001 0.476329,0.22065 0.568416,0.45486 0.131823,0.35201 0.114527,0.75077 -0.01871,1.09998 -0.100503,-0.0402 -0.20147,-0.0799 -0.302442,-0.11968 0.07807,-0.15053 0.129484,-0.32256 0.09676,-0.49272 -0.01964,-0.18793 -0.154723,-0.3852 -0.354323,-0.40624 -0.153326,-0.0248 -0.306179,0.071 -0.37583,0.20522 -0.07479,0.12342 -0.07152,0.27254 -0.07152,0.41185 -0.07479,-0.029 -0.150053,-0.057 -0.2267138,-0.0804 -0.0098,-0.27067 0.02057,-0.55771 0.1762258,-0.78677 z"
         inkscape:connector-curvature="0"
         style="fill:#ffffff;stroke-width:0.445243" />
      <path
         id="path3541"
         d="m 8.5745932,167.54908 c 0.06311,-0.2085 0.239332,-0.40999 0.47119,-0.41139 0.20147,-0.0182 0.374424,0.13043 0.459501,0.30106 0.100034,0.19213 0.09676,0.41465 0.08648,0.62549 -0.06918,0.0215 -0.136963,0.0467 -0.204275,0.0725 -0.0061,-0.14164 -0.02291,-0.29965 -0.133694,-0.40156 -0.122939,-0.13417 -0.36274,-0.12154 -0.471185,0.0248 -0.173423,0.22159 -0.13603,0.58014 0.09489,0.74937 -0.02149,0.0135 -0.06498,0.0397 -0.08694,0.0528 -0.270188,-0.25618 -0.319735,-0.66943 -0.215963,-1.01303 z"
         inkscape:connector-curvature="0"
         style="fill:#ffffff;stroke-width:0.445243" />
      <path
         id="path3543"
         d="m 10.261615,167.74027 c 0.06965,-0.13417 0.222504,-0.23 0.37583,-0.20522 0.1996,0.0211 0.334692,0.21831 0.354324,0.40624 0.03273,0.17016 -0.01871,0.34219 -0.09676,0.49272 -0.234657,-0.0949 -0.469319,-0.18933 -0.70491,-0.28189 0,-0.13931 -0.0031,-0.28843 0.07152,-0.41185 z"
         inkscape:connector-curvature="0"
         style="fill:#000000;stroke-width:0.445243" />
      <path
         id="path3545"
         d="m 8.7826092,167.7599 c 0.108445,-0.14631 0.348246,-0.15894 0.471185,-0.0248 0.110786,0.1019 0.127613,0.25991 0.133694,0.40156 -0.02056,0.0958 -0.05329,0.18886 -0.09396,0.27862 -0.03927,0.0341 -0.07853,0.0692 -0.116862,0.10471 -0.09957,0.008 -0.200537,0.008 -0.29917,-0.0108 -0.23092,-0.16922 -0.268313,-0.52778 -0.09489,-0.74937 z"
         inkscape:connector-curvature="0"
         style="fill:#000000;stroke-width:0.445243" />
      <path
         id="path3547"
         d="m 9.3874882,168.13669 c 0.06731,-0.0257 0.135092,-0.051 0.204275,-0.0725 0.123403,-0.0112 0.248212,-0.008 0.37162,0.007 0.07666,0.0234 0.1519198,0.0514 0.2267138,0.0804 0.235591,0.0926 0.470253,0.18699 0.70491,0.28189 0.100972,0.0397 0.201939,0.0795 0.302442,0.11967 0.08274,0.0332 0.165475,0.0668 0.248213,0.10051 -0.03741,0.0963 -0.07526,0.1926 -0.109848,0.2903 -0.05142,0.2445 -0.307581,0.32303 -0.488487,0.45112 -0.358998,0.23561 -0.727814,0.54368 -1.1859168,0.50488 -0.387047,-0.0828 -0.646479,-0.40016 -0.934897,-0.64372 -0.06731,-0.0631 -0.138829,-0.12996 -0.166409,-0.22018 -0.01685,-0.11033 -4.42e-4,-0.22205 0.0035,-0.33285 0.07573,-0.0472 0.150987,-0.0949 0.226715,-0.14164 0.02198,-0.0131 0.06544,-0.0393 0.08694,-0.0528 0.09863,0.0191 0.1996,0.0191 0.29917,0.0108 -0.116398,0.1323 -0.251959,0.24589 -0.405281,0.33331 0.02477,0.0799 0.02853,0.18372 0.114527,0.22626 0.298697,0.17437 0.673594,0.21598 1.00408,0.11313 0.3286148,-0.10191 0.6516218,-0.23093 0.9423748,-0.41792 0.04206,0.0631 0.08367,0.12621 0.125743,0.18979 -0.297763,0.21224 -0.644144,0.33518 -0.9877158,0.44925 -0.208953,0.0697 -0.431926,0.0683 -0.649287,0.0739 0.163604,0.087 0.334223,0.21271 0.531019,0.17016 0.3622748,-0.0566 0.6343298,-0.32536 0.9419108,-0.5016 0.150986,-0.0828 0.287949,-0.19214 0.367414,-0.34827 -0.297299,-0.151 -0.61376,-0.25618 -0.919471,-0.38567 -0.15613,-0.0627 -0.3155288,-0.1323 -0.4866158,-0.13184 -0.1608,0.008 -0.313189,0.0683 -0.461836,0.12482 0.04064,-0.0898 0.07339,-0.18278 0.09396,-0.27862 z"
         inkscape:connector-curvature="0"
         style="fill:#ca9c00;stroke-width:0.445243" />
      <path
         id="path3549"
         d="m 9.2935312,168.41531 c 0.148647,-0.0566 0.301036,-0.1164 0.461836,-0.12482 0.171087,-4.4e-4 0.3304858,0.0692 0.4866158,0.13184 0.305711,0.12949 0.622172,0.23467 0.919471,0.38567 -0.07946,0.15613 -0.216428,0.26552 -0.367414,0.34827 -0.307581,0.17624 -0.579636,0.44504 -0.9419108,0.5016 -0.196796,0.0426 -0.367415,-0.0832 -0.531019,-0.17016 0.217361,-0.006 0.440334,-0.004 0.649287,-0.0739 0.3435718,-0.11407 0.6899528,-0.23701 0.9877158,-0.44925 -0.04206,-0.0636 -0.08367,-0.12668 -0.125743,-0.18979 -0.290753,0.18699 -0.61376,0.31601 -0.9423748,0.41792 -0.330486,0.10285 -0.705383,0.0612 -1.00408,-0.11313 -0.08601,-0.0426 -0.08975,-0.14632 -0.114527,-0.22626 0.153322,-0.0874 0.288883,-0.20102 0.405281,-0.33331 0.03834,-0.0355 0.07759,-0.0706 0.116862,-0.10472 z"
         inkscape:connector-curvature="0"
         style="fill:#ffc200;stroke-width:0.445243" />
      <path
         id="path3561"
         d="m 10.847327,169.39562 c 0.180906,-0.12809 0.437066,-0.20663 0.488487,-0.45112 -0.0084,0.1566 -0.01778,0.32677 0.06684,0.46608 0.33516,0.62922 0.597401,1.29491 0.930691,1.92601 0.235126,0.41746 0.312256,0.89943 0.378634,1.36738 0.01168,0.55583 0.07759,1.11447 0.0318,1.6689 -0.0061,-0.0926 -0.0089,-0.18512 -0.01168,-0.27768 -0.120135,-0.0402 -0.238399,-0.0926 -0.36461,-0.10986 -0.105178,0.005 -0.205212,0.0435 -0.30618,0.0706 -0.04908,0.16829 -0.09443,0.34032 -0.08695,0.51797 0.01123,0.40156 -0.02384,0.80266 -0.04113,1.20376 -0.510454,0.45299 -1.098037,0.89242 -1.79687,0.97189 -0.2524228,0.0453 -0.5085878,0.0201 -0.7624128,0.008 -0.128546,-0.0108 -0.263174,-0.005 -0.38284,-0.0603 -0.132288,-0.32163 -0.379098,-0.5778 -0.557664,-0.87278 0.13556,-0.0243 0.332825,-0.0552 0.347782,-0.22719 0.03273,-0.1711 -0.124809,-0.2819 -0.234662,-0.38147 -0.259432,-0.23701 -0.535693,-0.45766 -0.781106,-0.70916 -0.209882,-0.29452 -0.466511,-0.58482 -0.521669,-0.95507 -0.01729,-0.42914 0.113589,-0.85175 0.282806,-1.24162 0.17903,-0.44411 0.379567,-0.87887 0.570286,-1.31783 0.150987,-0.35575 0.357132,-0.68439 0.502975,-1.04248 0.107513,-0.21457 0.09209,-0.4614 0.126676,-0.6928 0.288418,0.24356 0.547851,0.56097 0.934897,0.64372 0.4581038,0.0388 0.8269198,-0.26927 1.1859178,-0.50488 z"
         inkscape:connector-curvature="0"
         style="fill:#ffffff;stroke-width:0.445243" />
      <path
         id="path3573"
         d="m 6.3280352,174.09379 c 0.14491,-0.34874 0.671254,-0.34921 0.871323,-0.0528 0.412759,0.59323 0.841408,1.17618 1.234066,1.78344 0.178566,0.29497 0.425377,0.55115 0.557665,0.87278 0.06545,0.24543 0.07526,0.50862 8.84e-4,0.75357 -0.128551,0.28003 -0.440807,0.42307 -0.73156,0.46375 -0.448281,0.0201 -0.892356,-0.0991 -1.30979,-0.25338 -0.383773,-0.13837 -0.778302,-0.24262 -1.170023,-0.35482 -0.229987,-0.0654 -0.470721,-0.0762 -0.701173,-0.1379 -0.107512,-0.0257 -0.163608,-0.1309 -0.236063,-0.20382 0.0051,-0.12809 -0.0065,-0.26226 0.05189,-0.38006 0.05983,-0.15614 0.172484,-0.29872 0.17202,-0.47262 -0.0047,-0.22066 -0.06591,-0.43476 -0.08414,-0.65354 -0.0075,-0.24029 0.0098,-0.48057 0.04206,-0.71852 0.152389,-0.11126 0.332825,-0.18699 0.524477,-0.17764 0.170619,-0.0169 0.373491,0.0528 0.513727,-0.0757 0.125742,-0.10144 0.184173,-0.25758 0.264576,-0.39268 z"
         inkscape:connector-curvature="0"
         style="fill:#ca9c00;stroke-width:0.445243" />
      <path
         id="path3575"
         d="m 12.061293,174.05592 c 0.100968,-0.0271 0.201002,-0.0654 0.30618,-0.0706 0.126211,0.0173 0.244475,0.0696 0.36461,0.10986 0.0027,0.0926 0.0056,0.18512 0.01167,0.27768 -0.01495,0.15894 0.127614,0.25898 0.252423,0.32256 0.232791,0.11781 0.538033,0.16081 0.761944,-0.001 0.174824,-0.10379 0.218298,-0.31555 0.280935,-0.49366 0.121068,0.007 0.245409,0.008 0.362739,0.0467 0.0089,0.008 0.02618,0.0243 0.03507,0.0327 0.03366,0.0322 0.06638,0.0659 0.09863,0.10051 0.07853,0.14211 0.09676,0.3048 0.12247,0.46281 0.02242,0.32115 0.294495,0.53994 0.543645,0.70355 0.155661,0.10285 0.301036,0.22065 0.447348,0.33659 -0.07853,0.20242 -0.151456,0.42166 -0.317864,0.57079 -0.18137,0.14024 -0.372089,0.27488 -0.593196,0.345 -0.534291,0.20289 -0.945648,0.61053 -1.400943,0.94104 -0.15893,0.14117 -0.364142,0.20662 -0.562339,0.27113 -0.297299,0.0528 -0.606282,-0.0496 -0.825983,-0.25431 -0.07759,-0.10705 -0.138364,-0.22579 -0.191652,-0.3464 -0.03458,-0.21878 -0.07713,-0.44784 -0.01402,-0.66569 0.08881,-0.31648 0.180901,-0.63624 0.19025,-0.96721 0.01729,-0.4011 0.05235,-0.8022 0.04113,-1.20376 -0.0075,-0.17765 0.03786,-0.34968 0.08695,-0.51797 z"
         inkscape:connector-curvature="0"
         style="fill:#ca9c00;stroke-width:0.445243" />
      <path
         id="path3577"
         d="m 6.6786222,174.07088 c 0.221102,-0.0725 0.369285,0.14632 0.471654,0.30573 0.526817,0.73815 1.032127,1.49173 1.54305,2.24063 0.118264,0.19868 0.139766,0.44551 0.09816,0.66943 -0.06123,0.27394 -0.375362,0.38334 -0.624981,0.39876 -0.638067,0.001 -1.21443,-0.30433 -1.820243,-0.46047 -0.266447,-0.0711 -0.527281,-0.16455 -0.800738,-0.20709 -0.13369,-0.0243 -0.27159,-0.0351 -0.400137,-0.0823 -0.06731,-0.0276 -0.102369,-0.0972 -0.06638,-0.16455 0.07946,-0.24917 0.265509,-0.47589 0.218767,-0.75217 -0.04815,-0.37398 -0.13369,-0.75592 -0.04628,-1.1313 0.268782,-0.21972 0.695565,0.05 0.953595,-0.21271 0.224375,-0.14678 0.246811,-0.46935 0.473526,-0.60398 z"
         inkscape:connector-curvature="0"
         style="fill:#ffc200;stroke-width:0.445243" />
      <path
         id="path3579"
         d="m 12.238457,174.24244 c 0.08367,-0.0168 0.168748,-0.0117 0.252423,0.006 0.02057,0.16455 0.007,0.36276 0.149116,0.47963 0.326744,0.30386 0.875528,0.43102 1.257904,0.15474 0.169681,-0.0968 0.24494,-0.28283 0.324409,-0.45018 0.293558,0.17016 0.122939,0.5806 0.324409,0.81668 0.197729,0.31461 0.533827,0.48524 0.820839,0.70356 -0.101436,0.35715 -0.459501,0.53573 -0.780173,0.65634 -0.504841,0.20242 -0.901706,0.58155 -1.332226,0.90083 -0.162206,0.1309 -0.351055,0.23655 -0.55907,0.27114 -0.260835,0.0365 -0.557665,-0.0874 -0.665647,-0.33845 -0.126211,-0.27161 -0.09583,-0.58669 8.85e-4,-0.8625 0.154728,-0.48338 0.139302,-0.99386 0.17202,-1.49407 0.01636,-0.28142 -0.01358,-0.56471 0.03507,-0.84333 z"
         inkscape:connector-curvature="0"
         style="fill:#ffc200;stroke-width:0.445243" />
      <path
         id="path3581"
         d="m 10.136341,176.74954 c 0.698833,-0.0795 1.286416,-0.5189 1.79687,-0.97189 -0.0093,0.33097 -0.101436,0.65073 -0.19025,0.96721 -0.06311,0.21785 -0.02057,0.44691 0.01402,0.66569 -0.245877,-0.0608 -0.48241,-0.18559 -0.740905,-0.17343 -0.569353,0.002 -1.1382378,-4.5e-4 -1.7071228,0.001 -0.105177,0.0715 -0.212221,0.14025 -0.31693,0.21224 0.07432,-0.24496 0.06451,-0.50815 -8.85e-4,-0.75358 0.119666,0.0552 0.254294,0.0496 0.382841,0.0603 0.253824,0.0122 0.509989,0.0374 0.7624118,-0.008 z"
         inkscape:connector-curvature="0"
         style="fill:#000000;stroke-width:0.445243" />
    </g>
    <text
       xml:space="preserve"
       style="font-style:normal;font-variant:normal;font-weight:normal;font-stretch:normal;font-size:4.23333px;line-height:1.25;font-family:Calibri;-inkscape-font-specification:Calibri;letter-spacing:0px;word-spacing:0px;fill:#000000;fill-opacity:1;stroke:none;stroke-width:0.264583"
       x="81.084976"
       y="162.23108"
       id="text3341"><tspan
         sodipodi:role="line"
         id="tspan3339"
         x="81.084976"
         y="162.23108"
         style="text-align:center;text-anchor:middle;stroke-width:0.264583">AWS EC2</tspan><tspan
         sodipodi:role="line"
         x="81.084976"
         y="167.52274"
         style="text-align:center;text-anchor:middle;stroke-width:0.264583"
         id="tspan3343">Linux</tspan><tspan
         sodipodi:role="line"
         x="81.084976"
         y="172.81441"
         style="text-align:center;text-anchor:middle;stroke-width:0.264583"
         id="tspan3345">cron</tspan><tspan
         sodipodi:role="line"
         x="81.084976"
         y="178.10606"
         style="text-align:center;text-anchor:middle;stroke-width:0.264583"
         id="tspan3347">Python</tspan></text>
    <text
       xml:space="preserve"
       style="font-style:normal;font-variant:normal;font-weight:normal;font-stretch:normal;font-size:4.23333px;line-height:1.25;font-family:Calibri;-inkscape-font-specification:Calibri;letter-spacing:0px;word-spacing:0px;fill:#000000;fill-opacity:1;stroke:none;stroke-width:0.264583"
       x="139.53487"
       y="161.10483"
       id="text3341-4"><tspan
         sodipodi:role="line"
         id="tspan3339-5"
         x="139.53487"
         y="161.10483"
         style="text-align:center;text-anchor:middle;stroke-width:0.264583">AWS Lambda</tspan><tspan
         sodipodi:role="line"
         x="139.53487"
         y="166.39648"
         style="text-align:center;text-anchor:middle;stroke-width:0.264583"
         id="tspan3347-8">Python? Java?</tspan></text>
    <text
       xml:space="preserve"
       style="font-style:normal;font-variant:normal;font-weight:normal;font-stretch:normal;font-size:4.23333px;line-height:1.25;font-family:Calibri;-inkscape-font-specification:Calibri;letter-spacing:0px;word-spacing:0px;fill:#000000;fill-opacity:1;stroke:none;stroke-width:0.264583"
       x="209.50751"
       y="162.15063"
       id="text3341-4-8"><tspan
         sodipodi:role="line"
         x="209.50751"
         y="162.15063"
         style="text-align:center;text-anchor:middle;stroke-width:0.264583"
         id="tspan3347-8-8">MongoDB Atlas</tspan></text>
    <g
       id="g857"
       transform="matrix(0.50085014,0,0,0.50085167,167.7232,147.65451)"
       style="stroke-width:1.9966">
      <path
         id="rect841"
         d="m 134.48585,100.26985 v 31.23168 a 22.25,6.8592813 0 0 0 22.2498,6.85953 22.25,6.8592813 0 0 0 22.25032,-6.85953 22.25,6.8592813 0 0 0 -5.3e-4,-0.005 V 100.2695 Z"
         style="opacity:1;fill:#f4f4f4;fill-opacity:1;stroke:#7c7c7c;stroke-width:0.998301;stroke-linecap:round;stroke-linejoin:round;stroke-miterlimit:4;stroke-dasharray:none;stroke-dashoffset:0;stroke-opacity:1"
         inkscape:connector-curvature="0" />
      <path
         id="path839"
         d="m 178.9857,100.70778 a 22.25,6.8592815 0 0 1 -22.25,6.85928 22.25,6.8592815 0 0 1 -22.25,-6.85928 22.25,6.8592815 0 0 1 22.25,-6.859283 22.25,6.8592815 0 0 1 22.25,6.859283 z"
         style="opacity:1;fill:#d2d2d2;fill-opacity:1;stroke:#7c7c7c;stroke-width:0.998301;stroke-linecap:round;stroke-linejoin:round;stroke-miterlimit:4;stroke-dasharray:none;stroke-dashoffset:0;stroke-opacity:1"
         inkscape:connector-curvature="0" />
    </g>
    <text
       xml:space="preserve"
       style="font-style:normal;font-variant:normal;font-weight:normal;font-stretch:normal;font-size:4.23333px;line-height:1.25;font-family:Calibri;-inkscape-font-specification:Calibri;letter-spacing:0px;word-spacing:0px;fill:#000000;fill-opacity:1;stroke:none;stroke-width:0.264583"
       x="80.919609"
       y="230.06183"
       id="text3341-4-83"><tspan
         sodipodi:role="line"
         id="tspan3339-5-0"
         x="80.919609"
         y="230.06183"
         style="text-align:center;text-anchor:middle;stroke-width:0.264583">AWS Lambda</tspan><tspan
         sodipodi:role="line"
         x="80.919609"
         y="235.35349"
         style="text-align:center;text-anchor:middle;stroke-width:0.264583"
         id="tspan3498">Docker</tspan><tspan
         sodipodi:role="line"
         x="80.919609"
         y="240.64516"
         style="text-align:center;text-anchor:middle;stroke-width:0.264583"
         id="tspan3347-8-7">Python? Java?</tspan><tspan
         sodipodi:role="line"
         x="80.919609"
         y="245.93681"
         style="text-align:center;text-anchor:middle;stroke-width:0.264583"
         id="tspan3449">REST? GraphQL?</tspan></text>
    <g
       style="stroke-width:0.400831"
       transform="matrix(2.494816,0,0,2.494816,117.66984,69.327753)"
       id="g3457">
      <path
         style="fill:url(#linearGradient3459);stroke:none;stroke-width:0.0280599"
         inkscape:connector-curvature="0"
         id="path3453"
         d="m 14.042483,72.685703 c -1.421718,0 -1.332952,0.619748 -1.332952,0.619748 l 0.0016,0.64208 h 1.356754 v 0.192792 h -1.895648 c 0,0 -0.909776,-0.103676 -0.909776,1.338273 0,1.44195 0.794059,1.390916 0.794059,1.390916 h 0.47393 v -0.669171 c 0,0 -0.02555,-0.79819 0.781388,-0.79819 h 1.345623 c 0,0 0.755977,0.01225 0.755977,-0.734485 v -1.234737 c 0,0 0.114807,-0.747226 -1.370965,-0.747226 z m -0.748136,0.431787 c 0.06475,-7e-5 0.126848,0.02576 0.172631,0.07182 a 0.24571523,0.24571523 0 0 1 0,0.347082 c -0.04578,0.04599 -0.107877,0.07182 -0.172631,0.07182 -0.06475,0 -0.126848,-0.02576 -0.172631,-0.07182 a 0.24571523,0.24571523 0 0 1 0,-0.347082 c 0.04578,-0.04599 0.107877,-0.07182 0.172631,-0.07182 z" />
      <path
         style="fill:url(#linearGradient3461);stroke:none;stroke-width:0.0280599"
         inkscape:connector-curvature="0"
         id="path3455"
         d="m 14.082876,78.28605 c 1.421718,0 1.332952,-0.619748 1.332952,-0.619748 l -0.0016,-0.64208 H 14.057464 V 76.83143 h 1.895578 c 0,0 0.909776,0.103746 0.909776,-1.338273 0,-1.442019 -0.794059,-1.390916 -0.794059,-1.390916 H 15.59483 v 0.669171 c 0,0 0.02555,0.79819 -0.781389,0.79819 h -1.345553 c 0,0 -0.756047,-0.01225 -0.756047,0.734485 v 1.234737 c 0,0 -0.114737,0.747226 1.371035,0.747226 z m 0.748066,-0.431787 c -0.06475,7e-5 -0.126848,-0.02576 -0.17263,-0.07182 a 0.24571523,0.24571523 0 0 1 0,-0.347082 c 0.04578,-0.04599 0.107876,-0.07182 0.17263,-0.07182 0.06475,0 0.126848,0.02576 0.172631,0.07182 a 0.24571523,0.24571523 0 0 1 0,0.347082 c -0.04578,0.04599 -0.107877,0.07182 -0.172631,0.07182 z" />
    </g>
    <text
       xml:space="preserve"
       style="font-style:normal;font-variant:normal;font-weight:normal;font-stretch:normal;font-size:4.23333px;line-height:1.25;font-family:Calibri;-inkscape-font-specification:Calibri;letter-spacing:0px;word-spacing:0px;fill:#000000;fill-opacity:1;stroke:none;stroke-width:0.264583"
       x="139.4082"
       y="229.53278"
       id="text3341-7"><tspan
         sodipodi:role="line"
         id="tspan3339-2"
         x="139.4082"
         y="229.53278"
         style="text-align:center;text-anchor:middle;stroke-width:0.264583">AWS ECS?</tspan><tspan
         sodipodi:role="line"
         x="139.4082"
         y="234.82443"
         style="text-align:center;text-anchor:middle;stroke-width:0.264583"
         id="tspan3347-0">Python</tspan><tspan
         sodipodi:role="line"
         x="139.4082"
         y="240.1161"
         style="text-align:center;text-anchor:middle;stroke-width:0.264583"
         id="tspan3494">Plotly Dash</tspan><tspan
         sodipodi:role="line"
         x="139.4082"
         y="245.40776"
         style="text-align:center;text-anchor:middle;stroke-width:0.264583"
         id="tspan3496">Docker</tspan></text>
    <g
       transform="matrix(0.55068904,0,0,0.55068904,22.262134,83.770339)"
       id="g2478"
       style="stroke-width:1.81591">
      <path
         style="opacity:1;fill:#000000;fill-opacity:1;stroke:none;stroke-width:0.481215;stroke-linecap:round;stroke-linejoin:round;stroke-miterlimit:4;stroke-dasharray:none;stroke-dashoffset:0;stroke-opacity:1"
         id="path2462"
         d="m 147.81609,114.36776 c -0.0531,-0.62889 0.0184,-1.25969 0.11119,-1.8781 0.0696,-0.51851 0.21663,-1.06534 0.30831,-1.52746 0.0917,-0.46211 0.15769,-0.70964 0.33825,-1.19835 0.18055,-0.48872 0.50866,-1.39349 0.89315,-1.98553 0.38448,-0.59204 0.8327,-1.34029 1.31696,-1.84094 0.48425,-0.50067 0.83948,-0.89239 1.24574,-1.16614 0.40624,-0.27376 0.64075,-0.33235 1.32982,-0.66587 0.68908,-0.33352 1.90552,-0.58702 3.09221,-0.72398 1.1867,-0.13697 2.42277,0.0552 3.5906,0.36622 1.16784,0.31104 2.31763,0.88425 3.35293,1.37856 1.0353,0.49431 1.81285,1.19503 2.61232,1.98866 0.55815,0.56869 1.05645,1.21272 1.53902,1.87072 0.20787,0.28987 0.10739,0.14874 0.30119,0.42365 l -0.15493,-2.40481 v 0 c -0.1957,-0.267 -0.0944,-0.12972 -0.30438,-0.41148 -0.49164,-0.64481 -1.00349,-1.27036 -1.56709,-1.82652 -0.8193,-0.787 -1.62008,-1.46905 -2.66987,-1.95667 -1.0498,-0.48763 -2.20443,-1.07365 -3.38797,-1.37999 -1.18354,-0.30633 -2.43941,-0.48005 -3.64694,-0.34175 -1.20753,0.1383 -2.39899,0.51382 -2.97412,0.8033 -0.57514,0.28949 -1.01523,0.53209 -1.35022,0.80717 -0.33498,0.27509 -0.964,0.69838 -1.45483,1.19876 -0.49091,0.50029 -1.10326,1.23957 -1.50439,1.82857 -0.40113,0.589 -0.62276,1.22815 -0.81787,1.71627 -0.1951,0.48812 -0.28638,0.73344 -0.36602,1.20766 -0.0796,0.47422 -0.2363,0.97256 -0.31997,1.54491 -0.0837,0.57234 -0.17746,1.24203 -0.17619,1.87376 l 0.66306,2.29941 z"
         inkscape:connector-curvature="0"
         sodipodi:nodetypes="cczzzzzzzzzccccccczzzzzzzzzzccc" />
      <path
         style="opacity:1;fill:#000000;fill-opacity:1;stroke:none;stroke-width:0.481215;stroke-linecap:round;stroke-linejoin:round;stroke-miterlimit:4;stroke-dasharray:none;stroke-dashoffset:0;stroke-opacity:1"
         id="path2464"
         d="m 163.36006,112.4588 c 0.54718,-0.34714 1.19817,-0.43651 1.86495,-0.44084 0.93644,0.0462 1.89585,0.27009 2.85346,0.55805 0.86806,0.2287 1.72328,0.66734 2.57768,1.09877 0.43054,0.1761 0.81614,0.59656 1.24874,0.72017 0.17137,-0.005 0.30277,-0.11562 0.24351,-0.36872 -0.50442,-2.15458 -0.33595,-1.63239 -0.67207,-2.63024 -0.29795,-0.88703 -0.60195,-1.77171 -0.88264,-2.66313 -0.5017,-1.43572 -0.97111,-2.87864 -1.45535,-4.31825 -0.22044,-0.62571 -0.38956,-1.2597 -0.56492,-1.89254 0,0 0.2805,2.1608 0.2805,2.1608 v 0 c 0.17484,0.6166 0.35582,1.23229 0.57,1.84199 0.48335,1.44138 0.96955,2.88212 1.45165,4.32371 0.28652,0.91165 0.60141,1.81619 0.89116,2.72682 0.26434,0.90196 0.0891,0.31859 -0.4016,-1.70915 -0.0131,-0.0541 0.02,0.10926 0.04,0.1621 0.013,0.0345 0.0471,0.0591 0.057,0.0943 0.013,0.0459 -0.0379,0.0583 -0.0548,0.0667 -0.41197,-0.13429 -0.79613,-0.5262 -1.21074,-0.66922 -0.86209,-0.41873 -1.72492,-0.84342 -2.59812,-1.0707 -0.97135,-0.29332 -1.9443,-0.51 -2.89526,-0.56719 -0.14616,-0.003 -0.29428,-0.0143 -0.43848,-0.008 -0.53411,0.0239 -1.03672,0.18413 -1.50602,0.39148 0,0 0.60132,2.19299 0.60132,2.19299 z"
         inkscape:connector-curvature="0" />
    </g>
    <g
       id="A-14"
       transform="matrix(0.10977045,0,0,0.10977045,105.37788,132.84484)"
       style="stroke-width:2.41033">
      <g
         id="g10"
         style="fill:#876929;stroke:none;stroke-width:2.41033">
        <path
           d="M 0,25.938 0.021,63.44 35,80 69.98,63.44 V 54.072 L 40.235,50.564 40.255,29.437 70,25.948 V 16.57 L 35,0 0,16.56 Z"
           id="path4-6"
           inkscape:connector-curvature="0"
           style="stroke-width:2.41033" />
        <path
           d="m 0.021,54.062 34.98,9.942 V 80 L 0.021,63.44 Z"
           id="path6-6"
           inkscape:connector-curvature="0"
           style="stroke-width:2.41033" />
        <path
           d="M 4.465,65.549 0,63.431 V 16.56 l 4.475,-2.109 z"
           id="path8-3"
           inkscape:connector-curvature="0"
           style="stroke-width:2.41033" />
      </g>
      <path
         d="m 40.255,50.564 -35.79,4.762 0.01,-30.661 35.78,4.772 z M 70,25.948 35,15.997 V 0 L 70,16.57 Z M 69.98,54.072 35,64.004 V 80 L 69.98,63.44 Z"
         id="path12-4"
         inkscape:connector-curvature="0"
         style="fill:#d9a741;stroke:none;stroke-width:2.41033" />
      <path
         d="m 22.109,48.581 12.892,1.526 V 29.815 L 22.109,31.36 Z M 9.125,47.065 17.49,48.047 V 31.924 l -8.365,1.001 z"
         id="path14-3"
         inkscape:connector-curvature="0"
         style="fill:#876929;stroke:none;stroke-width:2.41033" />
      <path
         d="M 4.475,24.665 35,15.996 70,25.947 40.255,29.436 4.475,24.664 Z"
         id="path16-56"
         inkscape:connector-curvature="0"
         style="fill:#624a1e;stroke:none;stroke-width:2.41033" />
      <path
         d="M 4.465,55.326 35,64.004 69.98,54.072 40.256,50.564 4.466,55.326 Z"
         id="path18-0"
         inkscape:connector-curvature="0"
         style="fill:#fad791;stroke:none;stroke-width:2.41033" />
      <path
         d="M 69.98,45.918 35,50.107 V 29.815 l 34.98,4.218 z"
         id="path20-6"
         inkscape:connector-curvature="0"
         style="fill:#d9a741;stroke:none;stroke-width:2.41033" />
    </g>
    <g
       id="g3578"
       transform="matrix(2.494816,0,0,2.494816,10.068576,63.449912)"
       style="stroke-width:0.400831">
      <path
         d="m 14.042483,72.685703 c -1.421718,0 -1.332952,0.619748 -1.332952,0.619748 l 0.0016,0.64208 h 1.356754 v 0.192792 h -1.895648 c 0,0 -0.909776,-0.103676 -0.909776,1.338273 0,1.44195 0.794059,1.390916 0.794059,1.390916 h 0.47393 v -0.669171 c 0,0 -0.02555,-0.79819 0.781388,-0.79819 h 1.345623 c 0,0 0.755977,0.01225 0.755977,-0.734485 v -1.234737 c 0,0 0.114807,-0.747226 -1.370965,-0.747226 z m -0.748136,0.431787 c 0.06475,-7e-5 0.126848,0.02576 0.172631,0.07182 a 0.24571523,0.24571523 0 0 1 0,0.347082 c -0.04578,0.04599 -0.107877,0.07182 -0.172631,0.07182 -0.06475,0 -0.126848,-0.02576 -0.172631,-0.07182 a 0.24571523,0.24571523 0 0 1 0,-0.347082 c 0.04578,-0.04599 0.107877,-0.07182 0.172631,-0.07182 z"
         id="path3574"
         inkscape:connector-curvature="0"
         style="fill:url(#linearGradient3580);stroke:none;stroke-width:0.0280599" />
      <path
         d="m 14.082876,78.28605 c 1.421718,0 1.332952,-0.619748 1.332952,-0.619748 l -0.0016,-0.64208 H 14.057464 V 76.83143 h 1.895578 c 0,0 0.909776,0.103746 0.909776,-1.338273 0,-1.442019 -0.794059,-1.390916 -0.794059,-1.390916 H 15.59483 v 0.669171 c 0,0 0.02555,0.79819 -0.781389,0.79819 h -1.345553 c 0,0 -0.756047,-0.01225 -0.756047,0.734485 v 1.234737 c 0,0 -0.114737,0.747226 1.371035,0.747226 z m 0.748066,-0.431787 c -0.06475,7e-5 -0.126848,-0.02576 -0.17263,-0.07182 a 0.24571523,0.24571523 0 0 1 0,-0.347082 c 0.04578,-0.04599 0.107876,-0.07182 0.17263,-0.07182 0.06475,0 0.126848,0.02576 0.172631,0.07182 a 0.24571523,0.24571523 0 0 1 0,0.347082 c -0.04578,0.04599 -0.107877,0.07182 -0.172631,0.07182 z"
         id="path3576"
         inkscape:connector-curvature="0"
         style="fill:url(#linearGradient3582);stroke:none;stroke-width:0.0280599" />
    </g>
  </g>
</svg>
